# xmcd
#
# Track frame offsets: 
#        150
#        15374
#        31780
#        48922
#        66267
#        86978
#        104934
#        115911
#        132995
#        151176
#        170345
#        179552
#        200233
#
# Disc length: 2901 seconds
#
# Revision: 0
# Processed by: cddbd v1.5.2PL0 Copyright (c) Steve Scherf et al.
# Submitted via: ExactAudioCopy v0.95b4
#
DISCID=b50b530d
DTITLE=Mariam Kriener feat Jonas Hammond - Keynotes
DYEAR=2006
DGENRE=R&B
TTITLE0=Hands off (what´s mine)
TTITLE1=You can´t play me
TTITLE2=I waited too long
TTITLE3=Must be my mind
TTITLE4=Sesame of love
TTITLE5=Hey Na Na, I want to get down
TTITLE6=Gimme mo´paper
TTITLE7=Shake it up Mariam
TTITLE8=You got what you need
TTITLE9=Beat dat drum
TTITLE10=Abuse it u lose it
TTITLE11=Sesame (Instrumental)
TTITLE12=Must be my mind (Instrumental)
EXTD=
EXTT0=
EXTT1=
EXTT2=
EXTT3=
EXTT4=
EXTT5=
EXTT6=
EXTT7=
EXTT8=
EXTT9=
EXTT10=
EXTT11=
EXTT12=
PLAYORDER=
